<?xml version="1.0" encoding="UTF-8" ?>
<!DOCTYPE svg PUBLIC "-//W3C//DTD SVG 1.1//EN" "http://www.w3.org/Graphics/SVG/1.1/DTD/svg11.dtd">
<svg width="1646pt" height="511pt" viewBox="0 0 1646 511" version="1.1" xmlns="http://www.w3.org/2000/svg">
<g id="#231f20ff">
<path fill="#231f20" opacity="1.00" d=" M 0.00 0.00 L 300.93 0.00 C 292.55 23.18 282.85 45.86 273.95 68.85 C 271.46 74.55 269.75 80.62 266.78 86.10 C 265.51 86.33 264.24 86.46 262.97 86.48 C 210.18 86.53 157.38 86.32 104.59 86.59 C 104.39 127.20 104.38 167.83 104.60 208.44 C 142.45 208.80 180.31 208.48 218.16 208.60 C 207.51 235.98 196.44 263.20 185.71 290.56 C 185.12 291.97 184.54 293.41 183.69 294.69 C 181.82 295.07 179.91 295.06 178.02 295.10 C 155.67 295.01 133.32 295.11 110.97 294.95 C 109.07 294.97 107.14 294.94 105.27 295.32 C 104.24 296.17 104.60 297.73 104.40 298.91 C 104.46 369.44 104.42 439.97 104.47 510.50 C 69.65 510.46 34.82 510.60 0.00 510.42 L 0.00 0.00 Z" />
<path fill="#231f20" opacity="1.00" d=" M 334.93 0.00 L 444.68 0.00 C 473.53 72.49 502.79 144.84 531.73 217.31 C 570.87 314.92 609.89 412.58 649.07 510.18 C 647.47 510.38 644.27 510.79 642.66 511.00 L 543.86 511.00 C 542.29 510.85 539.16 510.56 537.59 510.41 C 535.65 509.83 535.33 507.81 534.57 506.28 C 521.26 471.35 507.75 436.50 494.42 401.58 C 493.50 399.80 492.98 397.02 490.63 396.69 C 487.09 396.18 483.51 396.47 479.96 396.43 C 417.27 396.47 354.58 396.40 291.89 396.36 C 290.50 396.53 288.59 396.21 287.71 397.58 C 286.18 399.99 285.47 402.80 284.47 405.45 C 276.02 428.92 267.38 452.33 258.84 475.78 C 254.52 487.22 250.74 498.88 246.13 510.21 C 245.05 510.41 242.88 510.80 241.80 511.00 L 136.37 511.00 C 137.36 508.06 138.04 505.02 139.34 502.20 C 158.55 453.40 177.91 404.66 196.71 355.70 C 228.51 274.42 260.13 193.06 291.75 111.70 C 306.11 74.46 321.31 37.53 334.93 0.00 M 388.62 120.50 C 365.41 183.54 342.53 246.71 319.44 309.81 C 366.06 309.82 412.68 309.81 459.30 309.81 C 435.68 246.73 412.47 183.49 388.62 120.50 Z" />
<path fill="#231f20" opacity="1.00" d=" M 480.98 0.00 L 895.22 0.00 C 895.02 28.52 895.16 57.04 895.14 85.56 C 805.93 85.59 716.72 85.52 627.51 85.59 C 642.27 123.18 657.51 160.59 672.94 197.90 C 673.54 200.29 675.95 200.30 678.00 200.30 C 750.32 200.25 822.64 200.25 894.97 200.37 C 894.98 229.17 894.97 257.96 894.97 286.75 C 832.71 286.76 770.46 286.74 708.21 286.76 C 726.37 332.25 744.69 377.68 762.89 423.15 C 763.51 425.47 765.58 426.65 767.94 426.34 C 810.28 426.31 852.62 426.30 894.97 426.31 C 894.84 454.54 895.26 482.78 894.75 511.00 L 694.04 511.00 C 692.41 510.85 689.13 510.54 687.49 510.39 C 684.03 508.55 683.72 504.11 682.09 500.89 C 615.18 333.87 548.07 166.94 480.98 0.00 Z" />
<path fill="#231f20" opacity="1.00" d=" M 926.19 0.00 L 1210.21 0.00 C 1228.06 2.64 1246.26 4.49 1263.27 10.91 C 1276.36 15.65 1288.44 22.90 1299.14 31.77 C 1311.56 23.38 1324.75 16.06 1338.89 10.98 C 1352.31 5.97 1366.31 2.72 1380.35 0.00 L 1489.44 0.00 C 1510.38 3.71 1531.24 9.03 1550.33 18.63 C 1590.59 38.02 1621.30 77.50 1627.48 122.06 C 1628.65 131.34 1629.90 140.62 1630.48 149.96 C 1597.30 150.53 1564.10 149.70 1530.92 150.09 C 1529.39 149.98 1527.75 150.25 1526.38 149.53 C 1524.94 146.95 1524.87 143.88 1524.15 141.06 C 1520.43 123.63 1511.96 106.41 1497.41 95.56 C 1484.32 85.89 1468.01 81.77 1452.05 80.12 C 1433.79 78.47 1415.20 78.77 1397.21 82.61 C 1384.75 85.27 1372.57 89.82 1362.04 97.08 C 1348.90 105.56 1342.35 122.86 1346.99 137.86 C 1349.38 146.39 1355.12 153.69 1362.30 158.75 C 1373.63 166.88 1387.03 171.35 1400.06 175.93 C 1437.71 188.12 1476.78 195.19 1514.72 206.37 C 1533.84 212.39 1552.93 218.96 1570.69 228.37 C 1598.05 242.80 1621.20 265.98 1633.48 294.56 C 1640.52 310.79 1643.38 328.42 1645.03 345.92 C 1645.19 351.28 1644.97 356.63 1645.10 361.99 C 1643.51 398.70 1627.56 434.59 1601.39 460.39 C 1581.14 480.45 1554.75 493.28 1527.44 500.64 C 1502.69 507.27 1477.07 509.81 1451.55 511.00 L 1274.70 511.00 C 1270.32 509.78 1263.69 512.57 1261.00 507.72 C 1229.01 459.83 1197.07 411.89 1164.81 364.17 C 1154.63 349.24 1144.19 334.39 1131.82 321.16 C 1122.39 311.14 1110.39 303.35 1096.98 299.95 C 1081.00 295.85 1064.35 296.01 1047.96 295.80 C 1042.03 295.95 1036.07 295.33 1030.16 295.96 C 1029.35 297.11 1029.47 298.58 1029.39 299.91 C 1029.37 370.00 1029.34 440.09 1029.21 510.18 C 994.61 510.19 960.00 510.19 925.40 510.18 C 925.72 340.12 925.70 170.06 926.19 0.00 M 1029.86 83.99 C 1029.61 127.38 1029.48 170.79 1029.69 214.18 C 1073.46 214.27 1117.25 214.30 1160.99 212.70 C 1174.70 212.26 1188.73 211.59 1201.69 206.66 C 1212.79 202.56 1222.70 194.97 1228.89 184.80 C 1238.91 168.19 1240.83 147.48 1236.40 128.80 C 1233.57 116.50 1226.32 105.29 1216.16 97.79 C 1204.46 88.80 1189.59 85.10 1175.06 84.36 C 1161.70 83.76 1148.33 83.76 1134.96 83.81 C 1099.93 84.15 1064.89 83.46 1029.86 83.99 M 1302.85 244.84 C 1290.66 255.73 1276.45 264.26 1261.28 270.30 C 1245.14 276.93 1228.02 280.60 1210.91 283.72 C 1223.25 291.27 1235.39 299.22 1246.47 308.56 C 1257.06 317.57 1267.60 326.96 1275.37 338.60 C 1293.48 365.56 1311.38 392.67 1329.29 419.76 C 1331.00 422.49 1333.22 425.70 1336.93 425.28 C 1366.27 425.48 1395.61 425.34 1424.96 425.44 C 1446.97 425.64 1469.50 425.46 1490.59 418.34 C 1506.32 413.36 1520.36 403.36 1530.19 390.11 C 1540.21 376.87 1543.78 358.90 1539.11 342.93 C 1536.00 332.36 1528.39 323.57 1519.14 317.82 C 1506.39 309.93 1492.02 305.17 1477.66 301.18 C 1458.90 296.10 1439.99 291.57 1421.11 286.95 C 1401.11 282.03 1381.30 276.38 1361.69 270.09 C 1342.57 263.93 1323.96 255.89 1307.06 244.98 C 1305.77 244.01 1304.03 243.33 1302.85 244.84 Z" />
</g>
</svg>
